<svg version="1.1" id="Layer_1" xmlns="http://www.w3.org/2000/svg" xmlns:xlink="http://www.w3.org/1999/xlink" x="0px" y="0px"
	 viewBox="0 0 19.7 19.7" style="enable-background:new 0 0 19.7 19.7;" xml:space="preserve">
<style type="text/css">
	.Drop_x0020_Shadow{fill:none;}
	.Outer_x0020_Glow_x0020_5_x0020_pt{fill:none;}
	.Blue_x0020_Neon{fill:none;stroke:#8AACDA;stroke-width:7;stroke-linecap:round;stroke-linejoin:round;}
	.Chrome_x0020_Highlight{fill:url(#SVGID_1_);stroke:#FFFFFF;stroke-width:0.3629;stroke-miterlimit:1;}
	.Jive_GS{fill:#FFDD00;}
	.Alyssa_GS{fill:#A6D0E4;}
	.st0{fill:#2E3959;}
</style>
<linearGradient id="SVGID_1_" gradientUnits="userSpaceOnUse" x1="-1009.3557" y1="-405.6987" x2="-1009.3557" y2="-406.6987">
	<stop  offset="0" style="stop-color:#656565"/>
	<stop  offset="0.618" style="stop-color:#1B1B1B"/>
	<stop  offset="0.6292" style="stop-color:#545454"/>
	<stop  offset="0.9831" style="stop-color:#3E3E3E"/>
</linearGradient>
<g>
	<g>
		<path class="st0" d="M1.2,15.9L1,16.5c0.9,0.9,2.1,1.4,3.3,1.5l4.7-4.7c-1-1-1.6-2.2-1.8-3.4L1.2,15.9z"/>
	</g>
	<g>
		<path class="st0" d="M0,19.7l3.8-1.2c-1.1-0.2-2.1-0.7-3-1.5L0,19.7z"/>
	</g>
	<g>
		<path class="st0" d="M11.5,11.7L5,18.1c1.7,0,3.3-0.6,4.6-1.8C10.9,15.1,11.5,13.4,11.5,11.7z"/>
	</g>
	<g>
		<path class="st0" d="M7.5,8.7l6.4-6.4c-1.6,0-3.3,0.6-4.6,1.8C8.1,5.4,7.5,7.1,7.5,8.7z"/>
	</g>
	<g>
		<path class="st0" d="M7.6,9.5c0.2,1.3,0.8,2.5,1.7,3.5l2.1-2.1c-0.2-1.3-0.8-2.5-1.7-3.5L7.6,9.5z"/>
	</g>
	<g>
		<path class="st0" d="M19.2,0.5c-0.7-0.7-1.9-0.7-2.7,0.1L15.1,2c1.3,0.3,2.5,0.9,3.4,1.8l0.6-0.6C19.9,2.5,19.9,1.2,19.2,0.5z"/>
	</g>
	<g>
		<path class="st0" d="M10,7.1c1,1,1.6,2.2,1.8,3.4l6.3-6.3c-1-1-2.2-1.6-3.5-1.7L10,7.1z"/>
	</g>
</g>
</svg>